<?xml version="1.0" encoding="UTF-8"?>
<svg width="10px" height="6px" viewBox="0 0 10 6" version="1.1" xmlns="http://www.w3.org/2000/svg" xmlns:xlink="http://www.w3.org/1999/xlink">
    <!-- Generator: Sketch 47.1 (45422) - http://www.bohemiancoding.com/sketch -->
    <title>Chevron</title>
    <desc>Created with Sketch.</desc>
    <defs></defs>
    <g id="Symbols" stroke="none" stroke-width="1" fill="none" fill-rule="evenodd">
        <g id="Desktop-/-Mast" transform="translate(-1039.000000, -29.000000)" fill="#999999">
            <g id="Group-4">
                <g transform="translate(896.000000, 24.000000)">
                    <path d="M150.629471,7.82664266 C150.629471,7.74926161 150.59078,7.66220794 150.532745,7.60417216 L146.025299,3.09672631 C145.967263,3.03869052 145.880209,3 145.802828,3 C145.725447,3 145.638394,3.03869052 145.580358,3.09672631 L145.096726,3.58035783 C145.038691,3.63839362 145,3.72544729 145,3.80282834 C145,3.88020938 145.038691,3.96726306 145.096726,4.02529884 L148.89807,7.82664266 L145.096726,11.6279865 C145.038691,11.6860223 145,11.7730759 145,11.850457 C145,11.9375107 145.038691,12.0148917 145.096726,12.0729275 L145.580358,12.556559 C145.638394,12.6145948 145.725447,12.6532853 145.802828,12.6532853 C145.880209,12.6532853 145.967263,12.6145948 146.025299,12.556559 L150.532745,8.04911316 C150.59078,7.99107738 150.629471,7.9040237 150.629471,7.82664266 Z" id="Chevron" transform="translate(147.814735, 7.826643) rotate(-270.000000) translate(-147.814735, -7.826643) "></path>
                </g>
            </g>
        </g>
    </g>
</svg>